<svg xmlns="http://www.w3.org/2000/svg" viewBox="0 0 1190 1190" fill="#cf9142" role="img" aria-label="Proximo P"><path transform="translate(301.5,945.0) scale(1,-1)" d="M189 700H321Q385 700 431.0 677.0Q477 654 502.0 610.5Q527 567 527 507Q527 461 509.0 424.5Q491 388 461.0 363.0Q431 338 393.0 325.5Q355 313 314.5 316.0Q274 319 236 339V349Q236 349 253.0 346.5Q270 344 296.5 345.5Q323 347 352.5 356.5Q382 366 407.5 390.0Q433 414 446 457Q449 468 451.0 484.5Q453 501 452 517Q451 586 416.0 628.0Q381 670 317 670H199Q199 670 196.5 677.5Q194 685 191.5 692.5Q189 700 189 700ZM202 700V0H137V700ZM140 73V0H60V10Q60 10 66.5 10.0Q73 10 73 10Q99 10 117.5 28.5Q136 47 137 73ZM140 627H137Q137 653 118.0 671.5Q99 690 73 690Q73 690 67.0 690.0Q61 690 61 690L60 700H140ZM199 73H202Q203 47 221.5 28.5Q240 10 266 10Q266 10 272.5 10.0Q279 10 279 10V0H199Z"/></svg>