<svg xmlns="http://www.w3.org/2000/svg" viewBox="0 220 5431 812" fill="#8a5716" role="img" aria-label="Proximo"><g transform="matrix(1 0 0 -1 0 976)"><path transform="translate(0,0)" d="M189 700H321Q385 700 431.0 677.0Q477 654 502.0 610.5Q527 567 527 507Q527 461 509.0 424.5Q491 388 461.0 363.0Q431 338 393.0 325.5Q355 313 314.5 316.0Q274 319 236 339V349Q236 349 253.0 346.5Q270 344 296.5 345.5Q323 347 352.5 356.5Q382 366 407.5 390.0Q433 414 446 457Q449 468 451.0 484.5Q453 501 452 517Q451 586 416.0 628.0Q381 670 317 670H199Q199 670 196.5 677.5Q194 685 191.5 692.5Q189 700 189 700ZM202 700V0H137V700ZM140 73V0H60V10Q60 10 66.5 10.0Q73 10 73 10Q99 10 117.5 28.5Q136 47 137 73ZM140 627H137Q137 653 118.0 671.5Q99 690 73 690Q73 690 67.0 690.0Q61 690 61 690L60 700H140ZM199 73H202Q203 47 221.5 28.5Q240 10 266 10Q266 10 272.5 10.0Q279 10 279 10V0H199Z"/><path transform="translate(672,0)" d="M189 700H330Q375 700 411.5 687.0Q448 674 473.0 649.5Q498 625 511.5 590.5Q525 556 525 512Q525 464 502.5 420.0Q480 376 441.5 348.5Q403 321 355 321Q372 314 392.0 292.5Q412 271 427 251Q427 251 440.5 231.5Q454 212 474.5 184.0Q495 156 516.0 129.0Q537 102 552 86Q572 64 592.0 47.0Q612 30 635.5 20.0Q659 10 688 10V0H633Q587 0 553.5 14.0Q520 28 497.0 48.5Q474 69 458 88Q455 92 441.5 111.0Q428 130 409.5 156.5Q391 183 373.0 209.0Q355 235 342.0 253.5Q329 272 327 275Q308 300 285.0 321.0Q262 342 235 342V352Q235 352 250.5 351.5Q266 351 288 352Q314 353 345.0 360.0Q376 367 403.0 389.0Q430 411 444 456Q447 467 449.0 483.5Q451 500 450 516Q449 584 415.5 624.5Q382 665 326 668Q298 670 268.5 669.5Q239 669 219.0 669.0Q199 669 199 669Q199 670 196.5 677.5Q194 685 191.5 692.5Q189 700 189 700ZM202 700V0H137V700ZM140 73V0H60V10Q60 10 66.5 10.0Q73 10 73 10Q99 10 117.5 28.5Q136 47 137 73ZM140 627H137Q136 653 117.5 671.5Q99 690 73 690Q73 690 66.5 690.0Q60 690 60 690V700H140ZM199 73H202Q202 47 221.0 28.5Q240 10 266 10Q266 10 272.0 10.0Q278 10 278 10V0H199Z"/><path transform="translate(1444,0)" d="M429 714Q536 714 617.0 668.5Q698 623 743.5 541.0Q789 459 789 350Q789 241 743.5 159.0Q698 77 617.0 31.5Q536 -14 429 -14Q323 -14 242.0 31.5Q161 77 115.5 159.0Q70 241 70 350Q70 459 115.5 541.0Q161 623 242.0 668.5Q323 714 429 714ZM429 16Q514 16 577.5 58.0Q641 100 676.5 175.0Q712 250 712 350Q712 450 676.5 525.0Q641 600 577.5 642.0Q514 684 429 684Q345 684 281.5 642.0Q218 600 182.5 525.0Q147 450 147 350Q147 250 182.5 175.0Q218 100 281.5 58.0Q345 16 429 16Z"/><path transform="translate(2377,0)" d="M156 700 601 1H521L78 700ZM169 72Q160 58 164.0 43.5Q168 29 179.5 19.5Q191 10 204 10Q204 10 210.5 10.0Q217 10 217 10V0H-10V10H4Q36 10 63.0 28.0Q90 46 106 69ZM309 372 332 329 124 1H60ZM476 72 558 68Q574 45 601.0 27.5Q628 10 659 10H673V0H429V10Q429 10 435.0 10.0Q441 10 441 10Q462 10 475.5 30.0Q489 50 476 72ZM249 700V690Q249 690 243.0 690.0Q237 690 237 690Q224 690 212.5 680.5Q201 671 197.5 656.5Q194 642 202 628L122 631Q106 654 79.5 672.0Q53 690 21 690H7V700ZM586 700 351 354 317 378 521 700ZM654 700V690H640Q609 690 582.5 672.0Q556 654 539 631L475 628Q484 642 480.5 656.5Q477 671 466.0 680.5Q455 690 441 690Q441 690 435.0 690.0Q429 690 429 690V700Z"/><path transform="translate(3134,0)" d="M202 700V0H137V700ZM140 73V0H60V10Q60 10 66.5 10.0Q73 10 73 10Q99 10 117.5 28.5Q136 47 137 73ZM140 627H137Q136 653 117.5 671.5Q99 690 73 690Q73 690 66.5 690.0Q60 690 60 690V700H140ZM199 73H202Q203 47 221.5 28.5Q240 10 266 10Q266 10 272.0 10.0Q278 10 279 10V0H199ZM199 627V700H279V690Q278 690 272.0 690.0Q266 690 266 690Q240 690 221.5 671.5Q203 653 202 627Z"/><path transform="translate(3567,0)" d="M741 714 749 647 498 88Q498 88 490.5 71.0Q483 54 475.0 30.5Q467 7 464 -14H454L440 49ZM126 73V0H15V10Q16 10 23.5 10.0Q31 10 31 10Q58 10 79.0 26.5Q100 43 104 73ZM155 57Q155 56 155.0 55.0Q155 54 155 52Q155 36 166.5 22.5Q178 9 194 9H209V0H148V57ZM179 714H189L209 655L150 0H96ZM189 714 477 91 454 -14 170 602ZM750 714 836 0H758L703 606L741 714ZM806 73H827Q832 43 853.0 26.5Q874 10 900 10Q900 10 908.0 10.0Q916 10 916 10V0H806ZM753 57H760V0H699V9H714Q731 9 742.0 22.5Q753 36 753 52Q753 54 753.0 55.0Q753 56 753 57Z"/><path transform="translate(4593,0)" d="M429 714Q536 714 617.0 668.5Q698 623 743.5 541.0Q789 459 789 350Q789 241 743.5 159.0Q698 77 617.0 31.5Q536 -14 429 -14Q323 -14 242.0 31.5Q161 77 115.5 159.0Q70 241 70 350Q70 459 115.5 541.0Q161 623 242.0 668.5Q323 714 429 714ZM429 16Q514 16 577.5 58.0Q641 100 676.5 175.0Q712 250 712 350Q712 450 676.5 525.0Q641 600 577.5 642.0Q514 684 429 684Q345 684 281.5 642.0Q218 600 182.5 525.0Q147 450 147 350Q147 250 182.5 175.0Q218 100 281.5 58.0Q345 16 429 16Z"/></g></svg>